<?xml version="1.0" encoding="UTF-8" standalone="no"?>
<!-- Created with Inkscape (http://www.inkscape.org/) -->

<svg
   xmlns:dc="http://purl.org/dc/elements/1.1/"
   xmlns:cc="http://creativecommons.org/ns#"
   xmlns:rdf="http://www.w3.org/1999/02/22-rdf-syntax-ns#"
   xmlns:svg="http://www.w3.org/2000/svg"
   xmlns="http://www.w3.org/2000/svg"
   xmlns:inkscape="http://www.inkscape.org/namespaces/inkscape"
   version="1.2"
   width="250"
   height="120"
   id="svg2">
  <defs
     id="defs4">
    <inkscape:path-effect
       effect="construct_grid"
       id="path-effect4287" />
  </defs>
  <metadata
     id="metadata7">
    <rdf:RDF>
      <cc:Work
         rdf:about="">
        <dc:format>image/svg+xml</dc:format>
        <dc:type
           rdf:resource="http://purl.org/dc/dcmitype/StillImage" />
        <dc:title></dc:title>
      </cc:Work>
    </rdf:RDF>
  </metadata>
  <g
     transform="translate(0,-932.36218)"
     id="layer1">
    <flowRoot
       id="flowRoot2989"
       xml:space="preserve"
       style="font-size:40px;font-style:normal;font-weight:normal;line-height:125%;letter-spacing:0px;word-spacing:0px;fill:#000000;fill-opacity:1;stroke:none;font-family:Sans"><flowRegion
         id="flowRegion2991"><rect
           width="12.121831"
           height="101.01525"
           x="89.90358"
           y="309.90005"
           id="rect2993" /></flowRegion><flowPara
         id="flowPara2995" /></flowRoot>    <path
       d="m 104.68187,1013.9247 -23.085935,0 0,-2.7735 c 2.031216,-0.1302 3.710902,-0.3906 5.039063,-0.7812 1.354128,-0.3906 2.03121,-0.8724 2.03125,-1.4453 -4e-5,-0.2344 -0.02608,-0.5208 -0.07813,-0.8594 -0.05212,-0.3385 -0.130248,-0.638 -0.234375,-0.8984 l -4.609375,-12.4219 -19.414063,0 c -0.729181,1.82293 -1.328138,3.41147 -1.796875,4.76562 -0.442721,1.35418 -0.846366,2.60418 -1.210937,3.74998 -0.338554,1.1198 -0.572928,2.0313 -0.703125,2.7344 -0.13022,0.7031 -0.195324,1.276 -0.195313,1.7187 -1.1e-5,1.0417 0.820301,1.849 2.460938,2.4219 1.640609,0.5729 3.489566,0.9115 5.546875,1.0156 l 0,2.7735 -20.859375,0 0,-2.7735 c 0.677084,-0.052 1.523437,-0.1953 2.539062,-0.4296 1.015623,-0.2605 1.848956,-0.599 2.5,-1.0157 1.041663,-0.7031 1.848953,-1.4323 2.421875,-2.1875 0.572911,-0.7812 1.132806,-1.8489 1.679688,-3.2031 2.786448,-6.9531 5.859361,-14.76559 9.21875,-23.43749 3.359355,-8.67184 6.354143,-16.39318 8.984375,-23.16406 l 3.125,0 18.476562,47.81245 c 0.390578,1.0157 0.833286,1.836 1.328125,2.461 0.494743,0.625 1.184846,1.237 2.070313,1.8359 0.598897,0.3646 1.380147,0.6771 2.343747,0.9375 0.96349,0.2344 1.77078,0.3646 2.42187,0.3906 l 0,2.7735 m -22.343742,-22.65627 -8.398438,-21.48437 -8.242187,21.48437 16.640625,0"
       id="path2991"
       style="font-size:80px;font-style:normal;font-variant:normal;font-weight:normal;font-stretch:normal;text-align:center;line-height:115.99999666%;letter-spacing:-9.88000011px;word-spacing:0px;writing-mode:lr-tb;text-anchor:middle;fill:#6d1b19;fill-opacity:1;stroke:none;font-family:Georgia;-inkscape-font-specification:Georgia" />
    <path
       d="m 125.34875,980.37 c -4e-5,1.32815 -0.32556,2.51305 -0.97657,3.55468 -0.65107,1.01566 -1.65367,1.52347 -3.00781,1.52344 -1.45836,3e-5 -2.57815,-0.37758 -3.35937,-1.13281 -0.75524,-0.75518 -1.13284,-1.58851 -1.13282,-2.5 -2e-5,-0.57289 0.039,-1.09372 0.11719,-1.5625 0.10414,-0.46872 0.19529,-0.93747 0.27344,-1.40625 -1.22398,3e-5 -2.65627,0.49482 -4.29688,1.48437 -1.64064,0.98962 -3.03387,2.39587 -4.17968,4.21875 l 0,22.42192 c -2e-5,0.9114 0.16925,1.6536 0.50781,2.2265 0.36457,0.5729 0.92446,1.0026 1.67969,1.2891 0.65102,0.2604 1.48435,0.4557 2.5,0.5859 1.04164,0.1302 1.94008,0.2214 2.69531,0.2735 l 0,2.5781 -20.312501,0 0,-2.5781 c 0.598955,-0.052 1.210934,-0.1042 1.835938,-0.1563 0.651036,-0.052 1.210931,-0.1562 1.679687,-0.3125 0.729156,-0.2344 1.263016,-0.638 1.601566,-1.2109 0.36457,-0.599 0.54686,-1.3672 0.54687,-2.3047 l 0,-23.78908 c -10e-6,-0.80726 -0.19532,-1.60153 -0.58594,-2.38281 -0.36459,-0.78122 -0.88542,-1.40622 -1.562496,-1.875 -0.494797,-0.31247 -1.080734,-0.53382 -1.757812,-0.66406 -0.677087,-0.15622 -1.406253,-0.26039 -2.1875,-0.3125 l 0,-2.53907 12.812498,-0.85937 0.54688,0.54687 0,5.42969 0.19531,0 c 1.61457,-2.10934 3.41144,-3.7109 5.39062,-4.80469 1.97915,-1.09371 3.78904,-1.64058 5.42969,-1.64062 1.6406,4e-5 2.96872,0.53389 3.98438,1.60156 1.04163,1.06775 1.56246,2.50004 1.5625,4.29688"
       id="path2993"
       style="font-size:80px;font-style:normal;font-variant:normal;font-weight:normal;font-stretch:normal;text-align:center;line-height:115.99999666%;letter-spacing:-9.88000011px;word-spacing:0px;writing-mode:lr-tb;text-anchor:middle;fill:#6d1b19;fill-opacity:1;stroke:none;font-family:Georgia;-inkscape-font-specification:Georgia" />
    <path
       d="m 142.57812,1012.245 c -1.69273,0.7031 -3.29429,1.2891 -4.80469,1.7578 -1.51043,0.4948 -3.35939,0.7422 -5.54687,0.7422 -3.22918,0 -5.50783,-0.8073 -6.83594,-2.4219 -1.30209,-1.6406 -1.95313,-3.9453 -1.95312,-6.914 l 0,-26.09379 -5.82941,-0.80265 -1.12372,-2.94735 7.10938,0 0,-11.99219 7.10937,0 0,11.99219 11.05469,0 0,3.75 -10.97656,0 0,21.52339 c -2e-5,1.6146 0.0521,2.9688 0.15625,4.0625 0.13019,1.0678 0.41665,2.0053 0.85937,2.8125 0.41665,0.7553 1.04165,1.3282 1.875,1.7188 0.83332,0.3906 1.95311,0.5859 3.35938,0.5859 0.65102,0 1.60154,-0.052 2.85156,-0.1562 1.27601,-0.1302 2.17445,-0.2865 2.69531,-0.4688 l 0,2.8516"
       id="path2995"
       style="font-size:80px;font-style:normal;font-variant:normal;font-weight:normal;font-stretch:normal;text-align:center;line-height:115.99999666%;letter-spacing:-9.88000011px;word-spacing:0px;writing-mode:lr-tb;text-anchor:middle;fill:#6d1b19;fill-opacity:1;stroke:none;font-family:Georgia;-inkscape-font-specification:Georgia" />
    <path
       d="m 154.61219,1014.7193 -22.11877,0 3.3297,-2.5781 c 0.59896,-0.052 1.23698,-0.1042 1.91407,-0.1563 0.67707,-0.078 1.23697,-0.1823 1.67968,-0.3125 0.72916,-0.2344 1.27604,-0.638 1.64063,-1.2109 0.36457,-0.599 0.54687,-1.3672 0.54687,-2.3047 l 0,-44.6094 c 0,-0.93745 -0.20834,-1.80985 -0.625,-2.61719 -0.39063,-0.83328 -0.91146,-1.48432 -1.5625,-1.95312 -0.46875,-0.31245 -1.32813,-0.59891 -2.57812,-0.85938 -1.25,-0.26036 -2.25261,-0.41661 -3.00781,-0.46875 l 0,-2.5 14.49218,-0.89844 0.54688,0.58594 0,52.85154 c -2e-5,0.9115 0.16925,1.6667 0.50781,2.2657 0.33853,0.5729 0.8854,1.0156 1.64063,1.3281 0.57289,0.2604 1.13279,0.4557 1.67968,0.5859 0.5729,0.1302 1.21092,0.2214 1.91407,0.2735 l 0,2.5781"
       id="path2997"
       style="font-size:80px;font-style:normal;font-variant:normal;font-weight:normal;font-stretch:normal;text-align:center;line-height:115.99999666%;letter-spacing:-9.88000011px;word-spacing:0px;writing-mode:lr-tb;text-anchor:middle;fill:#6d1b19;fill-opacity:1;stroke:none;font-family:Georgia;-inkscape-font-specification:Georgia" />
    <path
       d="m 146.72437,1026.5028 c 0,-1.3021 0.35156,-2.3698 1.05469,-3.2031 0.72916,-0.8073 1.6276,-1.211 2.69531,-1.211 0.83333,0 1.54947,0.1563 2.14844,0.4688 0.59895,0.3125 1.1328,0.7161 1.60156,1.2109 0.39062,0.3906 0.80728,0.9245 1.25,1.6016 0.4427,0.6771 0.79426,1.237 1.05469,1.6797 1.30207,-0.7032 2.85155,-2.5391 4.64843,-5.5078 1.8229,-2.9688 3.13801,-5.5729 3.94532,-7.8125 -2.47398,-6.1719 -4.71356,-11.6927 -6.71875,-16.56253 -2.00522,-4.86977 -4.10157,-9.90883 -6.28907,-15.11719 -0.49479,-1.19788 -1.32813,-2.12236 -2.5,-2.77343 -1.17187,-0.67705 -2.34375,-1.10674 -3.51562,-1.28907 l 0,-2.57812 17.57812,0 0,2.73437 c -0.78126,0.0261 -1.71876,0.19535 -2.8125,0.50782 -1.09376,0.28649 -1.64063,0.62503 -1.64062,1.01562 -1e-5,0.15628 0.0521,0.4167 0.15625,0.78125 0.13019,0.36462 0.27342,0.74222 0.42969,1.13281 0.98957,2.57816 2.49998,6.30211 4.53125,11.17188 2.03123,4.84376 3.60675,8.72399 4.72656,11.64059 1.17185,-2.7864 2.38279,-5.66401 3.63281,-8.63278 1.27602,-2.99477 2.69529,-6.52341 4.25781,-10.58594 0.18226,-0.49476 0.44268,-1.17184 0.78125,-2.03125 0.33851,-0.88538 0.50778,-1.64059 0.50782,-2.26562 -4e-5,-0.67705 -0.59899,-1.30205 -1.79688,-1.875 -1.1719,-0.59893 -2.29169,-0.96351 -3.35937,-1.09375 l 0,-2.5 14.29687,0 0,2.42187 c -0.78129,0.13025 -1.80993,0.58598 -3.08594,1.36719 -1.27607,0.75524 -2.22659,1.83597 -2.85156,3.24219 -3.09899,7.18752 -5.8594,13.73699 -8.28125,19.64839 -2.39586,5.9115 -4.21877,10.2605 -5.46875,13.0469 -1.64064,3.6458 -3.112,6.4844 -4.41406,8.5156 -1.27606,2.0573 -2.52606,3.6719 -3.75,4.8438 -1.19793,1.0937 -2.29168,1.8229 -3.28125,2.1875 -0.96355,0.3906 -1.96615,0.5859 -3.00781,0.5859 -2.03126,0 -3.63282,-0.4818 -4.80469,-1.4453 -1.14584,-0.9635 -1.71875,-2.0703 -1.71875,-3.3203"
       id="path2999"
       style="font-size:80px;font-style:normal;font-variant:normal;font-weight:normal;font-stretch:normal;text-align:center;line-height:115.99999666%;letter-spacing:-9.88000011px;word-spacing:0px;writing-mode:lr-tb;text-anchor:middle;fill:#6d1b19;fill-opacity:1;stroke:none;font-family:Georgia;-inkscape-font-specification:Georgia" />
    <path
       d="m 192.5475,1009.4325 c -2e-5,1.4583 -0.53387,2.7083 -1.60157,3.75 -1.04168,1.0156 -2.29168,1.5234 -3.75,1.5234 -1.45834,0 -2.72136,-0.5078 -3.78906,-1.5234 -1.04167,-1.0417 -1.5625,-2.2917 -1.5625,-3.75 0,-1.4583 0.52083,-2.7083 1.5625,-3.75 1.0677,-1.0677 2.33072,-1.6016 3.78906,-1.6016 1.45832,0 2.70832,0.5339 3.75,1.6016 1.0677,1.0417 1.60155,2.2917 1.60157,3.75"
       id="path3001"
       style="font-size:80px;font-style:normal;font-variant:normal;font-weight:normal;font-stretch:normal;text-align:center;line-height:115.99999666%;letter-spacing:-9.88000011px;word-spacing:0px;writing-mode:lr-tb;text-anchor:middle;fill:#6d1b19;fill-opacity:1;stroke:none;font-family:Georgia;-inkscape-font-specification:Georgia" />
  </g>
</svg>
